<?xml version="1.0" standalone="no"?>
<!DOCTYPE svg PUBLIC "-//W3C//DTD SVG 20010904//EN"
 "http://www.w3.org/TR/2001/REC-SVG-20010904/DTD/svg10.dtd">
<svg version="1.0" xmlns="http://www.w3.org/2000/svg"
 width="512.000000pt" height="512.000000pt" viewBox="0 0 512.000000 512.000000"
 preserveAspectRatio="xMidYMid meet">
<metadata>
Created by potrace 1.14, written by Peter Selinger 2001-2017
</metadata>
<g transform="translate(0.000000,512.000000) scale(0.100000,-0.100000)"
fill="#000000" stroke="none">
<path d="M505 4908 c-143 -10 -233 -49 -339 -149 -38 -35 -75 -82 -98 -125
-71 -134 -68 -80 -68 -1169 0 -826 3 -990 15 -1042 45 -191 178 -333 375 -399
50 -16 94 -18 467 -19 305 0 413 -3 413 -12 0 -6 -18 -51 -41 -100 -22 -48
-47 -102 -55 -120 -20 -45 -18 -127 6 -172 21 -41 68 -86 109 -104 31 -13
1509 -19 1555 -6 81 23 144 101 151 186 4 50 -15 109 -81 247 -19 38 -31 72
-29 75 3 2 50 5 104 5 l99 1 35 -70 c20 -39 56 -97 81 -130 28 -38 41 -64 36
-70 -18 -22 -40 -131 -39 -190 2 -60 2 -60 -52 -115 -104 -105 -200 -263 -248
-407 -41 -123 -51 -220 -51 -504 0 -263 0 -269 22 -289 12 -11 29 -20 37 -21
113 -4 1993 0 2007 5 42 13 46 36 46 295 -1 271 -7 352 -34 439 -9 31 -54 65
-79 60 -6 -2 -24 27 -39 65 -15 37 -34 77 -42 90 -13 20 -13 24 4 41 10 11 18
29 18 41 0 29 -49 101 -121 177 l-60 63 -3 85 c-2 56 -10 103 -23 137 -18 46
-19 54 -6 65 27 22 95 129 128 202 28 62 41 105 74 241 5 22 13 31 31 34 51 7
147 59 192 105 26 25 62 77 80 114 30 61 33 74 33 162 0 85 -3 102 -31 160
-17 36 -51 86 -75 111 -47 47 -156 109 -195 109 -12 0 -24 6 -26 13 -2 6 -4
114 -3 238 l1 226 25 34 c42 55 96 159 118 229 37 114 46 204 46 432 0 213 -1
218 -23 240 l-23 23 -387 0 -387 1 -12 49 c-36 144 -144 286 -268 352 -131 69
-45 65 -1523 65 l-1333 0 -25 -23 c-13 -12 -24 -28 -24 -36 0 -7 -3 -13 -7
-14 -36 -4 -176 -3 -181 1 -4 3 -13 17 -21 33 -8 15 -24 30 -35 32 -40 9 -132
10 -221 3z"/>
</g>
</svg>
